#N canvas 379 657 450 300 10;
#X obj 61 49 phasor~ 440;
#X obj 68 166 *~;
#X obj 72 208 dac~;
#X obj 143 52 r volume;
#X obj 148 83 / 100;
#X obj 134 107 pack 0 5;
#X obj 109 134 line~;
#X msg 237 114 \; pd dsp \$1 \;;
#X obj 241 29 r audio_on_off;
#X obj 245 69 bng 15 250 50 0 empty empty empty 17 7 0 10 -262144 -1
-1;
#X obj 218 182 netreceive 3000;
#X obj 223 218 route 0 1;
#X obj 198 251 s audio_on_off;
#X obj 306 251 s volume;
#X connect 0 0 1 0;
#X connect 1 0 2 0;
#X connect 1 0 2 1;
#X connect 3 0 4 0;
#X connect 4 0 5 0;
#X connect 5 0 6 0;
#X connect 6 0 1 1;
#X connect 8 0 9 0;
#X connect 9 0 7 0;
#X connect 10 0 11 0;
#X connect 11 0 12 0;
#X connect 11 1 13 0;
