#N canvas 1410 54 1670 991 10;
#X obj 21 -25 hsl 180 15 1 40 0 0 \$0-w \$0-width_ctrl width -2 -8
1 10 -261682 -1 -1 3213 1;
#X obj 20 8 hsl 180 15 0.9 0.999 0 0 \$0-d \$0-decay_ctrl decay -2
-8 1 10 -204786 -1 -1 17177 1;
#X obj 20 40 hsl 180 15 100 8000 0 0 \$0-c \$0-cutoff_ctrl cutoff -2
-8 1 10 -203904 -1 -1 12689 1;
#X obj -32 369 karpluck~;
#X msg -32 278 60;
#X msg -86 -36 \; pd dsp 0;
#X msg -86 -36 \; pd dsp 0;
#X msg -86 -1 \; pd dsp 1;
#X obj -15 299 r \$0-w;
#X obj 2 322 r \$0-d;
#X obj 19 345 r \$0-c;
#N canvas 1541 574 450 300 init 0;
#X obj -79 77 loadbang;
#X msg -109 133 0.995;
#X msg -66 133 5700;
#X obj -139 227 s \$0-width_ctrl;
#X obj -109 203 s \$0-decay_ctrl;
#X obj -66 181 s \$0-cutoff_ctrl;
#X msg -139 133 8;
#X connect 0 0 6 0;
#X connect 0 0 1 0;
#X connect 0 0 2 0;
#X connect 1 0 4 0;
#X connect 2 0 5 0;
#X connect 6 0 3 0;
#X restore -86 34 pd init;
#X obj -31 396 *~ 0.25;
#X msg -5 224 tempo \$1 permin;
#X obj -5 171 bng 15 250 50 0 empty empty empty 17 7 0 10 -262144 -1
-1;
#X obj -32 249 metro;
#X obj -32 146 t f f;
#X obj -32 119 loadbang;
#X obj 268 -26 netreceive 3000;
#X obj 227 10 print;
#X floatatom 268 60 5 0 0 0 - - -, f 5;
#X obj -32 171 bng 15 250 50 0 empty empty empty 17 7 0 10 -262144
-1 -1;
#X msg -5 193 0;
#X obj 268 88 s k60;
#X obj 27 193 r k60;
#X obj -31 435 gpan~;
#X obj -32 469 dac~;
#X obj 37 374 loadbang;
#X obj 268 10 route 60 61 62 63 64 65 66 67 68 69 70 71;
#X floatatom 308 60 5 0 0 0 - - -, f 5;
#X floatatom 348 60 5 0 0 0 - - -, f 5;
#X floatatom 388 60 5 0 0 0 - - -, f 5;
#X floatatom 426 60 5 0 0 0 - - -, f 5;
#X floatatom 466 60 5 0 0 0 - - -, f 5;
#X floatatom 506 60 5 0 0 0 - - -, f 5;
#X floatatom 546 60 5 0 0 0 - - -, f 5;
#X floatatom 586 60 5 0 0 0 - - -, f 5;
#X floatatom 626 60 5 0 0 0 - - -, f 5;
#X floatatom 666 60 5 0 0 0 - - -, f 5;
#X floatatom 706 60 5 0 0 0 - - -, f 5;
#X obj 308 88 s k61;
#X obj 348 88 s k62;
#X obj 388 88 s k63;
#X obj 426 88 s k64;
#X obj 466 88 s k65;
#X obj 506 88 s k66;
#X obj 546 88 s k67;
#X obj 586 88 s k68;
#X obj 626 88 s k69;
#X obj 666 88 s k70;
#X obj 706 88 s k71;
#X msg 37 404 0.2;
#X obj 11 278 bng 15 250 50 0 empty empty empty 17 7 0 10 -262144 -1
-1;
#X obj -32 225 bng 15 250 50 0 empty empty empty 17 7 0 10 -262144
-1 -1;
#X obj 338 1040 *~ 0.25;
#X msg 629 1071 0.45;
#X obj 11 332 bng 15 250 50 0 empty empty empty 17 7 0 10 -262144 -1
-1;
#X obj 96 369 karpluck~;
#X msg 96 278 60;
#X obj 113 299 r \$0-w;
#X obj 130 322 r \$0-d;
#X obj 147 345 r \$0-c;
#X obj 97 396 *~ 0.25;
#X msg 123 224 tempo \$1 permin;
#X obj 123 171 bng 15 250 50 0 empty empty empty 17 7 0 10 -262144
-1 -1;
#X obj 96 249 metro;
#X obj 96 146 t f f;
#X obj 96 119 loadbang;
#X obj 96 171 bng 15 250 50 0 empty empty empty 17 7 0 10 -262144 -1
-1;
#X msg 123 193 0;
#X obj 155 193 r k60;
#X obj 97 435 gpan~;
#X obj 96 469 dac~;
#X obj 165 374 loadbang;
#X msg 165 404 0.2;
#X obj 139 278 bng 15 250 50 0 empty empty empty 17 7 0 10 -262144
-1 -1;
#X obj 96 225 bng 15 250 50 0 empty empty empty 17 7 0 10 -262144 -1
-1;
#X obj 139 332 bng 15 250 50 0 empty empty empty 17 7 0 10 -262144
-1 -1;
#X obj 225 369 karpluck~;
#X msg 225 278 60;
#X obj 242 299 r \$0-w;
#X obj 259 322 r \$0-d;
#X obj 276 345 r \$0-c;
#X obj 226 396 *~ 0.25;
#X msg 252 224 tempo \$1 permin;
#X obj 252 171 bng 15 250 50 0 empty empty empty 17 7 0 10 -262144
-1 -1;
#X obj 225 249 metro;
#X obj 225 146 t f f;
#X obj 225 119 loadbang;
#X obj 225 171 bng 15 250 50 0 empty empty empty 17 7 0 10 -262144
-1 -1;
#X msg 252 193 0;
#X obj 284 193 r k60;
#X obj 226 435 gpan~;
#X obj 225 469 dac~;
#X obj 294 374 loadbang;
#X msg 294 404 0.2;
#X obj 268 278 bng 15 250 50 0 empty empty empty 17 7 0 10 -262144
-1 -1;
#X obj 225 225 bng 15 250 50 0 empty empty empty 17 7 0 10 -262144
-1 -1;
#X obj 268 332 bng 15 250 50 0 empty empty empty 17 7 0 10 -262144
-1 -1;
#X obj 353 369 karpluck~;
#X msg 353 278 60;
#X obj 370 299 r \$0-w;
#X obj 387 322 r \$0-d;
#X obj 404 345 r \$0-c;
#X obj 354 396 *~ 0.25;
#X msg 380 224 tempo \$1 permin;
#X obj 380 171 bng 15 250 50 0 empty empty empty 17 7 0 10 -262144
-1 -1;
#X obj 353 249 metro;
#X obj 353 146 t f f;
#X obj 353 119 loadbang;
#X obj 353 171 bng 15 250 50 0 empty empty empty 17 7 0 10 -262144
-1 -1;
#X msg 380 193 0;
#X obj 412 193 r k60;
#X obj 354 435 gpan~;
#X obj 353 469 dac~;
#X obj 422 374 loadbang;
#X msg 422 404 0.2;
#X obj 396 278 bng 15 250 50 0 empty empty empty 17 7 0 10 -262144
-1 -1;
#X obj 353 225 bng 15 250 50 0 empty empty empty 17 7 0 10 -262144
-1 -1;
#X obj 396 332 bng 15 250 50 0 empty empty empty 17 7 0 10 -262144
-1 -1;
#X obj 482 369 karpluck~;
#X msg 482 278 60;
#X obj 499 299 r \$0-w;
#X obj 516 322 r \$0-d;
#X obj 533 345 r \$0-c;
#X obj 483 396 *~ 0.25;
#X msg 509 224 tempo \$1 permin;
#X obj 509 171 bng 15 250 50 0 empty empty empty 17 7 0 10 -262144
-1 -1;
#X obj 482 249 metro;
#X obj 482 146 t f f;
#X obj 482 119 loadbang;
#X obj 482 171 bng 15 250 50 0 empty empty empty 17 7 0 10 -262144
-1 -1;
#X msg 509 193 0;
#X obj 541 193 r k60;
#X obj 483 435 gpan~;
#X obj 482 469 dac~;
#X obj 551 374 loadbang;
#X msg 551 404 0.2;
#X obj 525 278 bng 15 250 50 0 empty empty empty 17 7 0 10 -262144
-1 -1;
#X obj 482 225 bng 15 250 50 0 empty empty empty 17 7 0 10 -262144
-1 -1;
#X obj 525 332 bng 15 250 50 0 empty empty empty 17 7 0 10 -262144
-1 -1;
#X obj 610 369 karpluck~;
#X msg 610 278 60;
#X obj 627 299 r \$0-w;
#X obj 644 322 r \$0-d;
#X obj 661 345 r \$0-c;
#X obj 611 396 *~ 0.25;
#X msg 637 224 tempo \$1 permin;
#X obj 637 171 bng 15 250 50 0 empty empty empty 17 7 0 10 -262144
-1 -1;
#X obj 610 249 metro;
#X obj 610 146 t f f;
#X obj 610 119 loadbang;
#X obj 610 171 bng 15 250 50 0 empty empty empty 17 7 0 10 -262144
-1 -1;
#X msg 637 193 0;
#X obj 669 193 r k60;
#X obj 611 435 gpan~;
#X obj 610 469 dac~;
#X obj 679 374 loadbang;
#X msg 679 404 0.2;
#X obj 653 278 bng 15 250 50 0 empty empty empty 17 7 0 10 -262144
-1 -1;
#X obj 610 225 bng 15 250 50 0 empty empty empty 17 7 0 10 -262144
-1 -1;
#X obj 653 332 bng 15 250 50 0 empty empty empty 17 7 0 10 -262144
-1 -1;
#X connect 3 0 12 0;
#X connect 4 0 3 0;
#X connect 8 0 3 1;
#X connect 9 0 3 2;
#X connect 10 0 3 3;
#X connect 12 0 25 0;
#X connect 12 0 25 1;
#X connect 13 0 15 0;
#X connect 14 0 22 0;
#X connect 15 0 4 0;
#X connect 15 0 52 0;
#X connect 16 0 21 0;
#X connect 16 1 14 0;
#X connect 17 0 16 0;
#X connect 18 0 19 0;
#X connect 18 0 28 0;
#X connect 20 0 23 0;
#X connect 21 0 15 0;
#X connect 22 0 13 0;
#X connect 24 0 13 0;
#X connect 25 0 26 0;
#X connect 25 1 26 1;
#X connect 27 0 51 0;
#X connect 28 0 20 0;
#X connect 28 1 29 0;
#X connect 28 2 30 0;
#X connect 28 3 31 0;
#X connect 28 4 32 0;
#X connect 28 5 33 0;
#X connect 28 6 34 0;
#X connect 28 7 35 0;
#X connect 28 8 36 0;
#X connect 28 9 37 0;
#X connect 28 10 38 0;
#X connect 28 11 39 0;
#X connect 29 0 40 0;
#X connect 30 0 41 0;
#X connect 31 0 42 0;
#X connect 32 0 43 0;
#X connect 33 0 44 0;
#X connect 34 0 45 0;
#X connect 35 0 46 0;
#X connect 36 0 47 0;
#X connect 37 0 48 0;
#X connect 38 0 49 0;
#X connect 39 0 50 0;
#X connect 51 0 25 2;
#X connect 57 0 62 0;
#X connect 58 0 57 0;
#X connect 59 0 57 1;
#X connect 60 0 57 2;
#X connect 61 0 57 3;
#X connect 62 0 71 0;
#X connect 62 0 71 1;
#X connect 63 0 65 0;
#X connect 64 0 69 0;
#X connect 65 0 58 0;
#X connect 65 0 75 0;
#X connect 66 0 68 0;
#X connect 66 1 64 0;
#X connect 67 0 66 0;
#X connect 68 0 65 0;
#X connect 69 0 63 0;
#X connect 70 0 63 0;
#X connect 71 0 72 0;
#X connect 71 1 72 1;
#X connect 73 0 74 0;
#X connect 74 0 71 2;
#X connect 78 0 83 0;
#X connect 79 0 78 0;
#X connect 80 0 78 1;
#X connect 81 0 78 2;
#X connect 82 0 78 3;
#X connect 83 0 92 0;
#X connect 83 0 92 1;
#X connect 84 0 86 0;
#X connect 85 0 90 0;
#X connect 86 0 79 0;
#X connect 86 0 96 0;
#X connect 87 0 89 0;
#X connect 87 1 85 0;
#X connect 88 0 87 0;
#X connect 89 0 86 0;
#X connect 90 0 84 0;
#X connect 91 0 84 0;
#X connect 92 0 93 0;
#X connect 92 1 93 1;
#X connect 94 0 95 0;
#X connect 95 0 92 2;
#X connect 99 0 104 0;
#X connect 100 0 99 0;
#X connect 101 0 99 1;
#X connect 102 0 99 2;
#X connect 103 0 99 3;
#X connect 104 0 113 0;
#X connect 104 0 113 1;
#X connect 105 0 107 0;
#X connect 106 0 111 0;
#X connect 107 0 100 0;
#X connect 107 0 117 0;
#X connect 108 0 110 0;
#X connect 108 1 106 0;
#X connect 109 0 108 0;
#X connect 110 0 107 0;
#X connect 111 0 105 0;
#X connect 112 0 105 0;
#X connect 113 0 114 0;
#X connect 113 1 114 1;
#X connect 115 0 116 0;
#X connect 116 0 113 2;
#X connect 120 0 125 0;
#X connect 121 0 120 0;
#X connect 122 0 120 1;
#X connect 123 0 120 2;
#X connect 124 0 120 3;
#X connect 125 0 134 0;
#X connect 125 0 134 1;
#X connect 126 0 128 0;
#X connect 127 0 132 0;
#X connect 128 0 121 0;
#X connect 128 0 138 0;
#X connect 129 0 131 0;
#X connect 129 1 127 0;
#X connect 130 0 129 0;
#X connect 131 0 128 0;
#X connect 132 0 126 0;
#X connect 133 0 126 0;
#X connect 134 0 135 0;
#X connect 134 1 135 1;
#X connect 136 0 137 0;
#X connect 137 0 134 2;
#X connect 141 0 146 0;
#X connect 142 0 141 0;
#X connect 143 0 141 1;
#X connect 144 0 141 2;
#X connect 145 0 141 3;
#X connect 146 0 155 0;
#X connect 146 0 155 1;
#X connect 147 0 149 0;
#X connect 148 0 153 0;
#X connect 149 0 142 0;
#X connect 149 0 159 0;
#X connect 150 0 152 0;
#X connect 150 1 148 0;
#X connect 151 0 150 0;
#X connect 152 0 149 0;
#X connect 153 0 147 0;
#X connect 154 0 147 0;
#X connect 155 0 156 0;
#X connect 155 1 156 1;
#X connect 157 0 158 0;
#X connect 158 0 155 2;
