#N canvas 1271 56 1670 991 10;
#X obj 21 -25 hsl 180 15 1 40 0 0 \$0-w \$0-width_ctrl width -2 -8
1 10 -261682 -1 -1 4913 1;
#X obj 20 8 hsl 180 15 0.9 0.999 0 0 \$0-d \$0-decay_ctrl decay -2
-8 1 10 -204786 -1 -1 15077 1;
#X obj 20 40 hsl 180 15 100 8000 0 0 \$0-c \$0-cutoff_ctrl cutoff -2
-8 1 10 -203904 -1 -1 11889 1;
#X obj -32 369 karpluck~;
#X msg -86 -36 \; pd dsp 0;
#X msg -86 -36 \; pd dsp 0;
#X msg -86 -1 \; pd dsp 1;
#X obj -15 299 r \$0-w;
#X obj 2 322 r \$0-d;
#X obj 19 345 r \$0-c;
#N canvas 1541 574 450 300 init 0;
#X obj -79 77 loadbang;
#X msg -109 133 0.995;
#X msg -66 133 5700;
#X obj -139 227 s \$0-width_ctrl;
#X obj -109 203 s \$0-decay_ctrl;
#X obj -66 181 s \$0-cutoff_ctrl;
#X msg -139 133 8;
#X connect 0 0 6 0;
#X connect 0 0 1 0;
#X connect 0 0 2 0;
#X connect 1 0 4 0;
#X connect 2 0 5 0;
#X connect 6 0 3 0;
#X restore -86 34 pd init;
#X obj -31 396 *~ 0.25;
#X msg -5 224 tempo \$1 permin;
#X obj -5 171 bng 15 250 50 0 empty empty empty 17 7 0 10 -262144 -1
-1;
#X obj -32 249 metro;
#X obj -32 146 t f f;
#X obj -32 119 loadbang;
#X obj 268 -26 netreceive 3000;
#X obj 227 10 print;
#X floatatom 268 60 5 0 0 0 - - -, f 5;
#X obj -32 171 bng 15 250 50 0 empty empty empty 17 7 0 10 -262144
-1 -1;
#X msg -5 193 0;
#X obj 268 88 s k60;
#X obj 27 193 r k60;
#X obj -31 435 gpan~;
#X obj -32 469 dac~;
#X obj 37 374 loadbang;
#X obj 268 10 route 60 61 62 63 64 65 66 67 68 69 70 71;
#X floatatom 308 60 5 0 0 0 - - -, f 5;
#X floatatom 348 60 5 0 0 0 - - -, f 5;
#X floatatom 388 60 5 0 0 0 - - -, f 5;
#X floatatom 426 60 5 0 0 0 - - -, f 5;
#X floatatom 466 60 5 0 0 0 - - -, f 5;
#X floatatom 506 60 5 0 0 0 - - -, f 5;
#X floatatom 546 60 5 0 0 0 - - -, f 5;
#X floatatom 586 60 5 0 0 0 - - -, f 5;
#X floatatom 626 60 5 0 0 0 - - -, f 5;
#X floatatom 666 60 5 0 0 0 - - -, f 5;
#X floatatom 706 60 5 0 0 0 - - -, f 5;
#X obj 308 88 s k61;
#X obj 348 88 s k62;
#X obj 388 88 s k63;
#X obj 426 88 s k64;
#X obj 466 88 s k65;
#X obj 506 88 s k66;
#X obj 546 88 s k67;
#X obj 586 88 s k68;
#X obj 626 88 s k69;
#X obj 666 88 s k70;
#X obj 706 88 s k71;
#X msg 37 404 0.2;
#X obj 11 278 bng 15 250 50 0 empty empty empty 17 7 0 10 -262144 -1
-1;
#X obj -32 225 bng 15 250 50 0 empty empty empty 17 7 0 10 -262144
-1 -1;
#X obj 338 1040 *~ 0.25;
#X msg 629 1071 0.45;
#X obj 11 332 bng 15 250 50 0 empty empty empty 17 7 0 10 -262144 -1
-1;
#X obj 96 369 karpluck~;
#X obj 113 299 r \$0-w;
#X obj 130 322 r \$0-d;
#X obj 147 345 r \$0-c;
#X obj 97 396 *~ 0.25;
#X msg 123 224 tempo \$1 permin;
#X obj 123 171 bng 15 250 50 0 empty empty empty 17 7 0 10 -262144
-1 -1;
#X obj 96 249 metro;
#X obj 96 146 t f f;
#X obj 96 119 loadbang;
#X obj 96 171 bng 15 250 50 0 empty empty empty 17 7 0 10 -262144 -1
-1;
#X msg 123 193 0;
#X obj 97 435 gpan~;
#X obj 96 469 dac~;
#X obj 165 374 loadbang;
#X obj 139 278 bng 15 250 50 0 empty empty empty 17 7 0 10 -262144
-1 -1;
#X obj 96 225 bng 15 250 50 0 empty empty empty 17 7 0 10 -262144 -1
-1;
#X obj 139 332 bng 15 250 50 0 empty empty empty 17 7 0 10 -262144
-1 -1;
#X obj 225 369 karpluck~;
#X obj 242 299 r \$0-w;
#X obj 259 322 r \$0-d;
#X obj 276 345 r \$0-c;
#X obj 226 396 *~ 0.25;
#X msg 252 224 tempo \$1 permin;
#X obj 252 171 bng 15 250 50 0 empty empty empty 17 7 0 10 -262144
-1 -1;
#X obj 225 249 metro;
#X obj 225 146 t f f;
#X obj 225 119 loadbang;
#X obj 225 171 bng 15 250 50 0 empty empty empty 17 7 0 10 -262144
-1 -1;
#X msg 252 193 0;
#X obj 226 435 gpan~;
#X obj 225 469 dac~;
#X obj 294 374 loadbang;
#X obj 268 278 bng 15 250 50 0 empty empty empty 17 7 0 10 -262144
-1 -1;
#X obj 225 225 bng 15 250 50 0 empty empty empty 17 7 0 10 -262144
-1 -1;
#X obj 268 332 bng 15 250 50 0 empty empty empty 17 7 0 10 -262144
-1 -1;
#X obj 353 369 karpluck~;
#X obj 370 299 r \$0-w;
#X obj 387 322 r \$0-d;
#X obj 404 345 r \$0-c;
#X obj 354 396 *~ 0.25;
#X msg 380 224 tempo \$1 permin;
#X obj 380 171 bng 15 250 50 0 empty empty empty 17 7 0 10 -262144
-1 -1;
#X obj 353 249 metro;
#X obj 353 146 t f f;
#X obj 353 119 loadbang;
#X obj 353 171 bng 15 250 50 0 empty empty empty 17 7 0 10 -262144
-1 -1;
#X msg 380 193 0;
#X obj 354 435 gpan~;
#X obj 353 469 dac~;
#X obj 422 374 loadbang;
#X obj 396 278 bng 15 250 50 0 empty empty empty 17 7 0 10 -262144
-1 -1;
#X obj 353 225 bng 15 250 50 0 empty empty empty 17 7 0 10 -262144
-1 -1;
#X obj 396 332 bng 15 250 50 0 empty empty empty 17 7 0 10 -262144
-1 -1;
#X obj 482 369 karpluck~;
#X obj 499 299 r \$0-w;
#X obj 516 322 r \$0-d;
#X obj 533 345 r \$0-c;
#X obj 483 396 *~ 0.25;
#X msg 509 224 tempo \$1 permin;
#X obj 509 171 bng 15 250 50 0 empty empty empty 17 7 0 10 -262144
-1 -1;
#X obj 482 249 metro;
#X obj 482 146 t f f;
#X obj 482 119 loadbang;
#X obj 482 171 bng 15 250 50 0 empty empty empty 17 7 0 10 -262144
-1 -1;
#X msg 509 193 0;
#X obj 483 435 gpan~;
#X obj 482 469 dac~;
#X obj 551 374 loadbang;
#X obj 525 278 bng 15 250 50 0 empty empty empty 17 7 0 10 -262144
-1 -1;
#X obj 482 225 bng 15 250 50 0 empty empty empty 17 7 0 10 -262144
-1 -1;
#X obj 525 332 bng 15 250 50 0 empty empty empty 17 7 0 10 -262144
-1 -1;
#X obj 610 369 karpluck~;
#X obj 627 299 r \$0-w;
#X obj 644 322 r \$0-d;
#X obj 661 345 r \$0-c;
#X obj 611 396 *~ 0.25;
#X msg 637 224 tempo \$1 permin;
#X obj 637 171 bng 15 250 50 0 empty empty empty 17 7 0 10 -262144
-1 -1;
#X obj 610 249 metro;
#X obj 610 146 t f f;
#X obj 610 119 loadbang;
#X obj 610 171 bng 15 250 50 0 empty empty empty 17 7 0 10 -262144
-1 -1;
#X msg 637 193 0;
#X obj 611 435 gpan~;
#X obj 610 469 dac~;
#X obj 679 374 loadbang;
#X obj 653 278 bng 15 250 50 0 empty empty empty 17 7 0 10 -262144
-1 -1;
#X obj 610 225 bng 15 250 50 0 empty empty empty 17 7 0 10 -262144
-1 -1;
#X obj 653 332 bng 15 250 50 0 empty empty empty 17 7 0 10 -262144
-1 -1;
#X obj -32 754 karpluck~;
#X obj -15 684 r \$0-w;
#X obj 2 707 r \$0-d;
#X obj 19 730 r \$0-c;
#X obj -31 781 *~ 0.25;
#X msg -5 609 tempo \$1 permin;
#X obj -5 556 bng 15 250 50 0 empty empty empty 17 7 0 10 -262144 -1
-1;
#X obj -32 634 metro;
#X obj -32 531 t f f;
#X obj -32 504 loadbang;
#X obj -32 556 bng 15 250 50 0 empty empty empty 17 7 0 10 -262144
-1 -1;
#X msg -5 578 0;
#X obj -31 820 gpan~;
#X obj -32 854 dac~;
#X obj 37 759 loadbang;
#X obj 11 663 bng 15 250 50 0 empty empty empty 17 7 0 10 -262144 -1
-1;
#X obj -32 610 bng 15 250 50 0 empty empty empty 17 7 0 10 -262144
-1 -1;
#X obj 11 717 bng 15 250 50 0 empty empty empty 17 7 0 10 -262144 -1
-1;
#X obj 96 754 karpluck~;
#X obj 113 684 r \$0-w;
#X obj 130 707 r \$0-d;
#X obj 147 730 r \$0-c;
#X obj 97 781 *~ 0.25;
#X msg 123 609 tempo \$1 permin;
#X obj 123 556 bng 15 250 50 0 empty empty empty 17 7 0 10 -262144
-1 -1;
#X obj 96 634 metro;
#X obj 96 531 t f f;
#X obj 96 504 loadbang;
#X obj 96 556 bng 15 250 50 0 empty empty empty 17 7 0 10 -262144 -1
-1;
#X msg 123 578 0;
#X obj 97 820 gpan~;
#X obj 96 854 dac~;
#X obj 165 759 loadbang;
#X obj 139 663 bng 15 250 50 0 empty empty empty 17 7 0 10 -262144
-1 -1;
#X obj 96 610 bng 15 250 50 0 empty empty empty 17 7 0 10 -262144 -1
-1;
#X obj 139 717 bng 15 250 50 0 empty empty empty 17 7 0 10 -262144
-1 -1;
#X obj 225 754 karpluck~;
#X obj 242 684 r \$0-w;
#X obj 259 707 r \$0-d;
#X obj 276 730 r \$0-c;
#X obj 226 781 *~ 0.25;
#X msg 252 609 tempo \$1 permin;
#X obj 252 556 bng 15 250 50 0 empty empty empty 17 7 0 10 -262144
-1 -1;
#X obj 225 634 metro;
#X obj 225 531 t f f;
#X obj 225 504 loadbang;
#X obj 225 556 bng 15 250 50 0 empty empty empty 17 7 0 10 -262144
-1 -1;
#X msg 252 578 0;
#X obj 226 820 gpan~;
#X obj 225 854 dac~;
#X obj 294 759 loadbang;
#X obj 268 663 bng 15 250 50 0 empty empty empty 17 7 0 10 -262144
-1 -1;
#X obj 225 610 bng 15 250 50 0 empty empty empty 17 7 0 10 -262144
-1 -1;
#X obj 268 717 bng 15 250 50 0 empty empty empty 17 7 0 10 -262144
-1 -1;
#X obj 352 754 karpluck~;
#X obj 369 684 r \$0-w;
#X obj 386 707 r \$0-d;
#X obj 403 730 r \$0-c;
#X obj 353 781 *~ 0.25;
#X msg 379 609 tempo \$1 permin;
#X obj 379 556 bng 15 250 50 0 empty empty empty 17 7 0 10 -262144
-1 -1;
#X obj 352 634 metro;
#X obj 352 531 t f f;
#X obj 352 504 loadbang;
#X obj 352 556 bng 15 250 50 0 empty empty empty 17 7 0 10 -262144
-1 -1;
#X msg 379 578 0;
#X obj 353 820 gpan~;
#X obj 352 854 dac~;
#X obj 421 759 loadbang;
#X obj 395 663 bng 15 250 50 0 empty empty empty 17 7 0 10 -262144
-1 -1;
#X obj 352 610 bng 15 250 50 0 empty empty empty 17 7 0 10 -262144
-1 -1;
#X obj 395 717 bng 15 250 50 0 empty empty empty 17 7 0 10 -262144
-1 -1;
#X obj 480 754 karpluck~;
#X obj 497 684 r \$0-w;
#X obj 514 707 r \$0-d;
#X obj 531 730 r \$0-c;
#X obj 481 781 *~ 0.25;
#X msg 507 609 tempo \$1 permin;
#X obj 507 556 bng 15 250 50 0 empty empty empty 17 7 0 10 -262144
-1 -1;
#X obj 480 634 metro;
#X obj 480 531 t f f;
#X obj 480 504 loadbang;
#X obj 480 556 bng 15 250 50 0 empty empty empty 17 7 0 10 -262144
-1 -1;
#X msg 507 578 0;
#X obj 481 820 gpan~;
#X obj 480 854 dac~;
#X obj 549 759 loadbang;
#X obj 523 663 bng 15 250 50 0 empty empty empty 17 7 0 10 -262144
-1 -1;
#X obj 480 610 bng 15 250 50 0 empty empty empty 17 7 0 10 -262144
-1 -1;
#X obj 523 717 bng 15 250 50 0 empty empty empty 17 7 0 10 -262144
-1 -1;
#X obj 609 754 karpluck~;
#X obj 626 684 r \$0-w;
#X obj 643 707 r \$0-d;
#X obj 660 730 r \$0-c;
#X obj 610 781 *~ 0.25;
#X msg 636 609 tempo \$1 permin;
#X obj 636 556 bng 15 250 50 0 empty empty empty 17 7 0 10 -262144
-1 -1;
#X obj 609 634 metro;
#X obj 609 531 t f f;
#X obj 609 504 loadbang;
#X obj 609 556 bng 15 250 50 0 empty empty empty 17 7 0 10 -262144
-1 -1;
#X msg 636 578 0;
#X obj 610 820 gpan~;
#X obj 609 854 dac~;
#X obj 678 759 loadbang;
#X obj 652 663 bng 15 250 50 0 empty empty empty 17 7 0 10 -262144
-1 -1;
#X obj 609 610 bng 15 250 50 0 empty empty empty 17 7 0 10 -262144
-1 -1;
#X obj 652 717 bng 15 250 50 0 empty empty empty 17 7 0 10 -262144
-1 -1;
#X obj 155 193 r k61;
#X msg 165 404 0.25;
#X obj 284 193 r k62;
#X msg 294 404 0.3;
#X obj 412 193 r k63;
#X msg 422 404 0.35;
#X obj 541 193 r k64;
#X msg 551 404 0.4;
#X obj 669 193 r k65;
#X msg 679 403 0.45;
#X obj 27 578 r k66;
#X msg 37 789 0.55;
#X obj 155 578 r k67;
#X msg 165 789 0.6;
#X obj 284 578 r k68;
#X msg 294 789 0.65;
#X obj 411 578 r k69;
#X msg 421 789 0.7;
#X obj 539 578 r k70;
#X msg 549 789 0.75;
#X obj 668 578 r k71;
#X msg 678 789 0.8;
#X msg -32 278 48;
#X msg 96 278 49;
#X msg 225 278 50;
#X msg 353 278 51;
#X msg 482 278 52;
#X msg 610 278 53;
#X msg -32 663 54;
#X msg 96 663 55;
#X msg 225 663 56;
#X msg 352 663 57;
#X msg 480 663 58;
#X msg 609 663 59;
#X connect 3 0 11 0;
#X connect 7 0 3 1;
#X connect 8 0 3 2;
#X connect 9 0 3 3;
#X connect 11 0 24 0;
#X connect 11 0 24 1;
#X connect 12 0 14 0;
#X connect 13 0 21 0;
#X connect 14 0 276 0;
#X connect 14 0 51 0;
#X connect 15 0 20 0;
#X connect 15 1 13 0;
#X connect 16 0 15 0;
#X connect 17 0 18 0;
#X connect 17 0 27 0;
#X connect 19 0 22 0;
#X connect 20 0 14 0;
#X connect 21 0 12 0;
#X connect 23 0 12 0;
#X connect 24 0 25 0;
#X connect 24 1 25 1;
#X connect 26 0 50 0;
#X connect 27 0 19 0;
#X connect 27 1 28 0;
#X connect 27 2 29 0;
#X connect 27 3 30 0;
#X connect 27 4 31 0;
#X connect 27 5 32 0;
#X connect 27 6 33 0;
#X connect 27 7 34 0;
#X connect 27 8 35 0;
#X connect 27 9 36 0;
#X connect 27 10 37 0;
#X connect 27 11 38 0;
#X connect 28 0 39 0;
#X connect 29 0 40 0;
#X connect 30 0 41 0;
#X connect 31 0 42 0;
#X connect 32 0 43 0;
#X connect 33 0 44 0;
#X connect 34 0 45 0;
#X connect 35 0 46 0;
#X connect 36 0 47 0;
#X connect 37 0 48 0;
#X connect 38 0 49 0;
#X connect 50 0 24 2;
#X connect 56 0 60 0;
#X connect 57 0 56 1;
#X connect 58 0 56 2;
#X connect 59 0 56 3;
#X connect 60 0 68 0;
#X connect 60 0 68 1;
#X connect 61 0 63 0;
#X connect 62 0 67 0;
#X connect 63 0 277 0;
#X connect 63 0 71 0;
#X connect 64 0 66 0;
#X connect 64 1 62 0;
#X connect 65 0 64 0;
#X connect 66 0 63 0;
#X connect 67 0 61 0;
#X connect 68 0 69 0;
#X connect 68 1 69 1;
#X connect 70 0 255 0;
#X connect 74 0 78 0;
#X connect 75 0 74 1;
#X connect 76 0 74 2;
#X connect 77 0 74 3;
#X connect 78 0 86 0;
#X connect 78 0 86 1;
#X connect 79 0 81 0;
#X connect 80 0 85 0;
#X connect 81 0 278 0;
#X connect 81 0 89 0;
#X connect 82 0 84 0;
#X connect 82 1 80 0;
#X connect 83 0 82 0;
#X connect 84 0 81 0;
#X connect 85 0 79 0;
#X connect 86 0 87 0;
#X connect 86 1 87 1;
#X connect 88 0 257 0;
#X connect 92 0 96 0;
#X connect 93 0 92 1;
#X connect 94 0 92 2;
#X connect 95 0 92 3;
#X connect 96 0 104 0;
#X connect 96 0 104 1;
#X connect 97 0 99 0;
#X connect 98 0 103 0;
#X connect 99 0 279 0;
#X connect 99 0 107 0;
#X connect 100 0 102 0;
#X connect 100 1 98 0;
#X connect 101 0 100 0;
#X connect 102 0 99 0;
#X connect 103 0 97 0;
#X connect 104 0 105 0;
#X connect 104 1 105 1;
#X connect 106 0 259 0;
#X connect 110 0 114 0;
#X connect 111 0 110 1;
#X connect 112 0 110 2;
#X connect 113 0 110 3;
#X connect 114 0 122 0;
#X connect 114 0 122 1;
#X connect 115 0 117 0;
#X connect 116 0 121 0;
#X connect 117 0 280 0;
#X connect 117 0 125 0;
#X connect 118 0 120 0;
#X connect 118 1 116 0;
#X connect 119 0 118 0;
#X connect 120 0 117 0;
#X connect 121 0 115 0;
#X connect 122 0 123 0;
#X connect 122 1 123 1;
#X connect 124 0 261 0;
#X connect 128 0 132 0;
#X connect 129 0 128 1;
#X connect 130 0 128 2;
#X connect 131 0 128 3;
#X connect 132 0 140 0;
#X connect 132 0 140 1;
#X connect 133 0 135 0;
#X connect 134 0 139 0;
#X connect 135 0 281 0;
#X connect 135 0 143 0;
#X connect 136 0 138 0;
#X connect 136 1 134 0;
#X connect 137 0 136 0;
#X connect 138 0 135 0;
#X connect 139 0 133 0;
#X connect 140 0 141 0;
#X connect 140 1 141 1;
#X connect 142 0 263 0;
#X connect 146 0 150 0;
#X connect 147 0 146 1;
#X connect 148 0 146 2;
#X connect 149 0 146 3;
#X connect 150 0 158 0;
#X connect 150 0 158 1;
#X connect 151 0 153 0;
#X connect 152 0 157 0;
#X connect 153 0 282 0;
#X connect 153 0 161 0;
#X connect 154 0 156 0;
#X connect 154 1 152 0;
#X connect 155 0 154 0;
#X connect 156 0 153 0;
#X connect 157 0 151 0;
#X connect 158 0 159 0;
#X connect 158 1 159 1;
#X connect 160 0 265 0;
#X connect 164 0 168 0;
#X connect 165 0 164 1;
#X connect 166 0 164 2;
#X connect 167 0 164 3;
#X connect 168 0 176 0;
#X connect 168 0 176 1;
#X connect 169 0 171 0;
#X connect 170 0 175 0;
#X connect 171 0 283 0;
#X connect 171 0 179 0;
#X connect 172 0 174 0;
#X connect 172 1 170 0;
#X connect 173 0 172 0;
#X connect 174 0 171 0;
#X connect 175 0 169 0;
#X connect 176 0 177 0;
#X connect 176 1 177 1;
#X connect 178 0 267 0;
#X connect 182 0 186 0;
#X connect 183 0 182 1;
#X connect 184 0 182 2;
#X connect 185 0 182 3;
#X connect 186 0 194 0;
#X connect 186 0 194 1;
#X connect 187 0 189 0;
#X connect 188 0 193 0;
#X connect 189 0 284 0;
#X connect 189 0 197 0;
#X connect 190 0 192 0;
#X connect 190 1 188 0;
#X connect 191 0 190 0;
#X connect 192 0 189 0;
#X connect 193 0 187 0;
#X connect 194 0 195 0;
#X connect 194 1 195 1;
#X connect 196 0 269 0;
#X connect 200 0 204 0;
#X connect 201 0 200 1;
#X connect 202 0 200 2;
#X connect 203 0 200 3;
#X connect 204 0 212 0;
#X connect 204 0 212 1;
#X connect 205 0 207 0;
#X connect 206 0 211 0;
#X connect 207 0 285 0;
#X connect 207 0 215 0;
#X connect 208 0 210 0;
#X connect 208 1 206 0;
#X connect 209 0 208 0;
#X connect 210 0 207 0;
#X connect 211 0 205 0;
#X connect 212 0 213 0;
#X connect 212 1 213 1;
#X connect 214 0 271 0;
#X connect 218 0 222 0;
#X connect 219 0 218 1;
#X connect 220 0 218 2;
#X connect 221 0 218 3;
#X connect 222 0 230 0;
#X connect 222 0 230 1;
#X connect 223 0 225 0;
#X connect 224 0 229 0;
#X connect 225 0 286 0;
#X connect 225 0 233 0;
#X connect 226 0 228 0;
#X connect 226 1 224 0;
#X connect 227 0 226 0;
#X connect 228 0 225 0;
#X connect 229 0 223 0;
#X connect 230 0 231 0;
#X connect 230 1 231 1;
#X connect 232 0 273 0;
#X connect 236 0 240 0;
#X connect 237 0 236 1;
#X connect 238 0 236 2;
#X connect 239 0 236 3;
#X connect 240 0 248 0;
#X connect 240 0 248 1;
#X connect 241 0 243 0;
#X connect 242 0 247 0;
#X connect 243 0 287 0;
#X connect 243 0 251 0;
#X connect 244 0 246 0;
#X connect 244 1 242 0;
#X connect 245 0 244 0;
#X connect 246 0 243 0;
#X connect 247 0 241 0;
#X connect 248 0 249 0;
#X connect 248 1 249 1;
#X connect 250 0 275 0;
#X connect 254 0 61 0;
#X connect 255 0 68 2;
#X connect 256 0 79 0;
#X connect 257 0 86 2;
#X connect 258 0 97 0;
#X connect 259 0 104 2;
#X connect 260 0 115 0;
#X connect 261 0 122 2;
#X connect 262 0 133 0;
#X connect 263 0 140 2;
#X connect 264 0 151 0;
#X connect 265 0 158 2;
#X connect 266 0 169 0;
#X connect 267 0 176 2;
#X connect 268 0 187 0;
#X connect 269 0 194 2;
#X connect 270 0 205 0;
#X connect 271 0 212 2;
#X connect 272 0 223 0;
#X connect 273 0 230 2;
#X connect 274 0 241 0;
#X connect 275 0 248 2;
#X connect 276 0 3 0;
#X connect 277 0 56 0;
#X connect 278 0 74 0;
#X connect 279 0 92 0;
#X connect 280 0 110 0;
#X connect 281 0 128 0;
#X connect 282 0 146 0;
#X connect 283 0 164 0;
#X connect 284 0 182 0;
#X connect 285 0 200 0;
#X connect 286 0 218 0;
#X connect 287 0 236 0;
