#N canvas 0 0 998 682 10;
#X text 115 8 Karplus-Strong synthesis;
#X obj 125 255 delwrite~ ka 200;
#X obj 121 98 delread~ ka;
#X obj 115 146 *~ 0.7;
#X obj 122 190 *~ 0.5;
#X obj 176 204 *~ 0.5;
#X text 224 173 current and previous sample averaged;
#X obj 472 183 mtof;
#X obj 472 259 /;
#X msg 472 231 1000;
#X obj 472 206 t b f;
#X text 510 241 convert Hz to ms;
#X obj 591 123 table seq 16;
#X text 592 145 create a small sequencer;
#X obj 441 108 tabread seq;
#X obj 447 40 metro 125;
#X obj 448 22 tgl 15 0 empty empty empty 17 7 0 10 -262144 -1 -1 0
1;
#X obj 447 65 f;
#X obj 483 65 + 1;
#X obj 482 85 % 16;
#X text 514 85 wrap around;
#X text 595 72 put something in the table;
#X obj 267 123 line~;
#X msg 268 101 1 \, 0 5;
#X text 217 46 generate noise pulses;
#X obj 225 88 noise~;
#X obj 241 142 *~;
#X obj 451 159 t b f;
#X obj 152 299 dac~;
#X obj 131 64 hsl 128 15 0 1 0 0 empty empty empty -2 -8 0 10 -262144
-1 -1 12511 1;
#X text 359 131 filter out 0's;
#X obj 452 132 sel 0;
#X obj 103 121 lop~ 1000;
#X msg 593 91 \; seq 0 36 39 0 0 39 41 36 0 0 34 34 0 34 31;
#X obj 174 176 z~ 3;
#X connect 2 0 28 0;
#X connect 2 0 28 1;
#X connect 2 0 32 0;
#X connect 3 0 4 0;
#X connect 3 0 34 0;
#X connect 4 0 1 0;
#X connect 5 0 1 0;
#X connect 7 0 10 0;
#X connect 8 0 2 0;
#X connect 9 0 8 0;
#X connect 10 0 9 0;
#X connect 10 1 8 1;
#X connect 14 0 31 0;
#X connect 15 0 17 0;
#X connect 16 0 15 0;
#X connect 17 0 18 0;
#X connect 17 0 14 0;
#X connect 18 0 19 0;
#X connect 19 0 17 1;
#X connect 22 0 26 1;
#X connect 23 0 22 0;
#X connect 25 0 26 0;
#X connect 26 0 1 0;
#X connect 27 0 23 0;
#X connect 27 1 7 0;
#X connect 29 0 3 1;
#X connect 31 1 27 0;
#X connect 32 0 3 0;
#X connect 34 0 5 0;
