#N canvas 398 411 450 300 10;
#X obj 131 39 netreceive 3000;
#X obj 140 230 print;
#X obj 162 98 route 1 2;
#X floatatom 280 180 5 0 0 0 - - -, f 5;
#X floatatom 171 177 5 0 0 0 - - -, f 5;
#X connect 0 0 1 0;
#X connect 0 0 2 0;
#X connect 2 0 4 0;
#X connect 2 1 3 0;
