#N canvas 323 684 450 300 10;
#X obj 74 149 netsend;
#X msg 74 61 connect localhost 3000;
#X msg 189 108 send 60 30;
#X msg 97 108 send 66 120;
#X connect 1 0 0 0;
#X connect 2 0 0 0;
#X connect 3 0 0 0;
